<svg width="64" height="57" viewBox="0 0 64 57" fill="none" xmlns="http://www.w3.org/2000/svg">
<path d="M55.497 43.4974C55.2699 44.3817 54.4728 45 53.5598 45L8.09594 45C6.91375 45 5.98952 43.98 6.10561 42.8036L9.88889 4.46154H1C0.447716 4.46154 0 4.01383 0 3.46154V0.999999C0 0.447715 0.447715 0 1 0H12.1315C13.3118 0 14.2354 1.01682 14.1223 2.19171L12.5444 18.5775C12.4312 19.7524 13.3549 20.7692 14.5352 20.7692H55.8339C56.2373 20.7692 56.6012 20.5268 56.7567 20.1545L57.9772 17.2313C58.2522 16.5726 57.7683 15.8461 57.0544 15.8461H18.6667C18.1144 15.8461 17.6667 15.3983 17.6667 14.8461V11.3845C17.6667 10.8322 18.1144 10.3845 18.6667 10.3845H61.4215C62.7279 10.3845 63.6836 11.6166 63.3587 12.882L55.497 43.4974Z" fill="white"/>
<circle cx="10" cy="52" r="5" fill="white"/>
<circle cx="48" cy="52" r="5" fill="white"/>
</svg>
