<svg width="242" height="137" viewBox="0 0 242 137" fill="none" xmlns="http://www.w3.org/2000/svg">
<g filter="url(#filter0_d_301_20)">
<mask id="path-1-inside-1_301_20" fill="white">
<path d="M164.603 30L124.301 6.73205C122.445 5.66025 120.158 5.66025 118.301 6.73205L78 30L121.301 55L164.603 30Z"/>
<path fill-rule="evenodd" clip-rule="evenodd" d="M121.301 105V55L78 30V76.5359C78 78.6795 79.1436 80.6603 81 81.732L121.301 105Z"/>
<path d="M161.603 81.7321C163.459 80.6603 164.603 78.6795 164.603 76.5359V30L121.301 55V105L161.603 81.7321Z"/>
</mask>
<path d="M164.603 30L124.301 6.73205C122.445 5.66025 120.158 5.66025 118.301 6.73205L78 30L121.301 55L164.603 30Z" fill="url(#paint0_linear_301_20)"/>
<path fill-rule="evenodd" clip-rule="evenodd" d="M121.301 105V55L78 30V76.5359C78 78.6795 79.1436 80.6603 81 81.732L121.301 105Z" fill="url(#paint1_linear_301_20)"/>
<path d="M161.603 81.7321C163.459 80.6603 164.603 78.6795 164.603 76.5359V30L121.301 55V105L161.603 81.7321Z" fill="url(#paint2_linear_301_20)"/>
<path d="M119.801 55V105H122.801V55H119.801ZM163.853 28.701L120.551 53.701L122.051 56.299L165.353 31.299L163.853 28.701ZM77.25 31.299L120.551 56.299L122.051 53.701L78.75 28.701L77.25 31.299ZM164.603 30H167.603V28.2679L166.103 27.4019L164.603 30ZM121.301 105L119.801 107.598L121.301 108.464L122.801 107.598L121.301 105ZM78 30L76.5 27.4019L75 28.2679V30H78ZM81 81.732L82.5 79.134L81 81.732ZM161.603 81.7321L163.103 84.3301L161.603 81.7321ZM122.801 9.33013L163.103 32.5981L166.103 27.4019L125.801 4.13397L122.801 9.33013ZM161.603 30V76.5359H167.603V30H161.603ZM160.103 79.134L119.801 102.402L122.801 107.598L163.103 84.3301L160.103 79.134ZM122.801 102.402L82.5 79.134L79.5 84.3301L119.801 107.598L122.801 102.402ZM81 76.5359V30H75V76.5359H81ZM79.5 32.5981L119.801 9.33013L116.801 4.13397L76.5 27.4019L79.5 32.5981ZM82.5 79.134C81.5718 78.5981 81 77.6077 81 76.5359H75C75 79.7513 76.7154 82.7224 79.5 84.3301L82.5 79.134ZM161.603 76.5359C161.603 77.6077 161.031 78.5981 160.103 79.134L163.103 84.3301C165.887 82.7224 167.603 79.7513 167.603 76.5359H161.603ZM125.801 4.13397C123.017 2.52628 119.586 2.52628 116.801 4.13397L119.801 9.33013C120.729 8.79423 121.873 8.79423 122.801 9.33013L125.801 4.13397Z" fill="white" mask="url(#path-1-inside-1_301_20)"/>
</g>
<path d="M12.54 129.36C10.4 129.36 8.46 128.9 6.72 127.98C5 127.04 3.64 125.75 2.64 124.11C1.66 122.45 1.17 120.58 1.17 118.5C1.17 116.42 1.66 114.56 2.64 112.92C3.64 111.26 5 109.97 6.72 109.05C8.46 108.11 10.41 107.64 12.57 107.64C14.39 107.64 16.03 107.96 17.49 108.6C18.97 109.24 20.21 110.16 21.21 111.36L18.09 114.24C16.67 112.6 14.91 111.78 12.81 111.78C11.51 111.78 10.35 112.07 9.33 112.65C8.31 113.21 7.51 114 6.93 115.02C6.37 116.04 6.09 117.2 6.09 118.5C6.09 119.8 6.37 120.96 6.93 121.98C7.51 123 8.31 123.8 9.33 124.38C10.35 124.94 11.51 125.22 12.81 125.22C14.91 125.22 16.67 124.39 18.09 122.73L21.21 125.61C20.21 126.83 18.97 127.76 17.49 128.4C16.01 129.04 14.36 129.36 12.54 129.36ZM40.0118 112.86V129H35.5718V127.08C34.9518 127.78 34.2118 128.32 33.3518 128.7C32.4918 129.06 31.5618 129.24 30.5618 129.24C28.4418 129.24 26.7618 128.63 25.5218 127.41C24.2818 126.19 23.6618 124.38 23.6618 121.98V112.86H28.3418V121.29C28.3418 123.89 29.4318 125.19 31.6118 125.19C32.7318 125.19 33.6318 124.83 34.3118 124.11C34.9918 123.37 35.3318 122.28 35.3318 120.84V112.86H40.0118ZM53.8875 112.62C55.3875 112.62 56.7475 112.97 57.9675 113.67C59.2075 114.35 60.1775 115.32 60.8775 116.58C61.5775 117.82 61.9275 119.27 61.9275 120.93C61.9275 122.59 61.5775 124.05 60.8775 125.31C60.1775 126.55 59.2075 127.52 57.9675 128.22C56.7475 128.9 55.3875 129.24 53.8875 129.24C51.6675 129.24 49.9775 128.54 48.8175 127.14V129H44.3475V106.74H49.0275V114.57C50.2075 113.27 51.8275 112.62 53.8875 112.62ZM53.0775 125.4C54.2775 125.4 55.2575 125 56.0175 124.2C56.7975 123.38 57.1875 122.29 57.1875 120.93C57.1875 119.57 56.7975 118.49 56.0175 117.69C55.2575 116.87 54.2775 116.46 53.0775 116.46C51.8775 116.46 50.8875 116.87 50.1075 117.69C49.3475 118.49 48.9675 119.57 48.9675 120.93C48.9675 122.29 49.3475 123.38 50.1075 124.2C50.8875 125 51.8775 125.4 53.0775 125.4ZM65.0604 112.86H69.7404V129H65.0604V112.86ZM67.4004 110.61C66.5404 110.61 65.8404 110.36 65.3004 109.86C64.7604 109.36 64.4904 108.74 64.4904 108C64.4904 107.26 64.7604 106.64 65.3004 106.14C65.8404 105.64 66.5404 105.39 67.4004 105.39C68.2604 105.39 68.9604 105.63 69.5004 106.11C70.0404 106.59 70.3104 107.19 70.3104 107.91C70.3104 108.69 70.0404 109.34 69.5004 109.86C68.9604 110.36 68.2604 110.61 67.4004 110.61ZM81.8838 129.24C80.1638 129.24 78.6138 128.89 77.2338 128.19C75.8738 127.47 74.8038 126.48 74.0238 125.22C73.2638 123.96 72.8838 122.53 72.8838 120.93C72.8838 119.33 73.2638 117.9 74.0238 116.64C74.8038 115.38 75.8738 114.4 77.2338 113.7C78.6138 112.98 80.1638 112.62 81.8838 112.62C83.5838 112.62 85.0638 112.98 86.3238 113.7C87.6038 114.4 88.5338 115.41 89.1138 116.73L85.4838 118.68C84.6438 117.2 83.4338 116.46 81.8538 116.46C80.6338 116.46 79.6238 116.86 78.8238 117.66C78.0238 118.46 77.6238 119.55 77.6238 120.93C77.6238 122.31 78.0238 123.4 78.8238 124.2C79.6238 125 80.6338 125.4 81.8538 125.4C83.4538 125.4 84.6638 124.66 85.4838 123.18L89.1138 125.16C88.5338 126.44 87.6038 127.44 86.3238 128.16C85.0638 128.88 83.5838 129.24 81.8838 129.24Z" fill="#B10020"/>
<path d="M111.248 129L111.218 116.4L105.038 126.78H102.848L96.6984 116.67V129H92.1384V108H96.1584L104.018 121.05L111.758 108H115.748L115.808 129H111.248ZM126.971 112.62C129.471 112.62 131.391 113.22 132.731 114.42C134.071 115.6 134.741 117.39 134.741 119.79V129H130.361V126.99C129.481 128.49 127.841 129.24 125.441 129.24C124.201 129.24 123.121 129.03 122.201 128.61C121.301 128.19 120.611 127.61 120.131 126.87C119.651 126.13 119.411 125.29 119.411 124.35C119.411 122.85 119.971 121.67 121.091 120.81C122.231 119.95 123.981 119.52 126.341 119.52H130.061C130.061 118.5 129.751 117.72 129.131 117.18C128.511 116.62 127.581 116.34 126.341 116.34C125.481 116.34 124.631 116.48 123.791 116.76C122.971 117.02 122.271 117.38 121.691 117.84L120.011 114.57C120.891 113.95 121.941 113.47 123.161 113.13C124.401 112.79 125.671 112.62 126.971 112.62ZM126.611 126.09C127.411 126.09 128.121 125.91 128.741 125.55C129.361 125.17 129.801 124.62 130.061 123.9V122.25H126.851C124.931 122.25 123.971 122.88 123.971 124.14C123.971 124.74 124.201 125.22 124.661 125.58C125.141 125.92 125.791 126.09 126.611 126.09ZM155.802 112.86V126.3C155.802 129.26 155.032 131.46 153.492 132.9C151.952 134.34 149.702 135.06 146.742 135.06C145.182 135.06 143.702 134.87 142.302 134.49C140.902 134.11 139.742 133.56 138.822 132.84L140.682 129.48C141.362 130.04 142.222 130.48 143.262 130.8C144.302 131.14 145.342 131.31 146.382 131.31C148.002 131.31 149.192 130.94 149.952 130.2C150.732 129.48 151.122 128.38 151.122 126.9V126.21C149.902 127.55 148.202 128.22 146.022 128.22C144.542 128.22 143.182 127.9 141.942 127.26C140.722 126.6 139.752 125.68 139.032 124.5C138.312 123.32 137.952 121.96 137.952 120.42C137.952 118.88 138.312 117.52 139.032 116.34C139.752 115.16 140.722 114.25 141.942 113.61C143.182 112.95 144.542 112.62 146.022 112.62C148.362 112.62 150.142 113.39 151.362 114.93V112.86H155.802ZM146.952 124.38C148.192 124.38 149.202 124.02 149.982 123.3C150.782 122.56 151.182 121.6 151.182 120.42C151.182 119.24 150.782 118.29 149.982 117.57C149.202 116.83 148.192 116.46 146.952 116.46C145.712 116.46 144.692 116.83 143.892 117.57C143.092 118.29 142.692 119.24 142.692 120.42C142.692 121.6 143.092 122.56 143.892 123.3C144.692 124.02 145.712 124.38 146.952 124.38ZM166.668 112.62C169.168 112.62 171.088 113.22 172.428 114.42C173.768 115.6 174.438 117.39 174.438 119.79V129H170.058V126.99C169.178 128.49 167.538 129.24 165.138 129.24C163.898 129.24 162.818 129.03 161.898 128.61C160.998 128.19 160.308 127.61 159.828 126.87C159.348 126.13 159.108 125.29 159.108 124.35C159.108 122.85 159.668 121.67 160.788 120.81C161.928 119.95 163.678 119.52 166.038 119.52H169.758C169.758 118.5 169.448 117.72 168.828 117.18C168.208 116.62 167.278 116.34 166.038 116.34C165.178 116.34 164.328 116.48 163.488 116.76C162.668 117.02 161.968 117.38 161.388 117.84L159.708 114.57C160.588 113.95 161.638 113.47 162.858 113.13C164.098 112.79 165.368 112.62 166.668 112.62ZM166.308 126.09C167.108 126.09 167.818 125.91 168.438 125.55C169.058 125.17 169.498 124.62 169.758 123.9V122.25H166.548C164.628 122.25 163.668 122.88 163.668 124.14C163.668 124.74 163.898 125.22 164.358 125.58C164.838 125.92 165.488 126.09 166.308 126.09ZM191.964 125.4V129H177.564V126.18L185.784 116.46H177.774V112.86H191.694V115.68L183.474 125.4H191.964ZM194.963 112.86H199.643V129H194.963V112.86ZM197.303 110.61C196.443 110.61 195.743 110.36 195.203 109.86C194.663 109.36 194.393 108.74 194.393 108C194.393 107.26 194.663 106.64 195.203 106.14C195.743 105.64 196.443 105.39 197.303 105.39C198.163 105.39 198.863 105.63 199.403 106.11C199.943 106.59 200.213 107.19 200.213 107.91C200.213 108.69 199.943 109.34 199.403 109.86C198.863 110.36 198.163 110.61 197.303 110.61ZM213.796 112.62C215.796 112.62 217.406 113.22 218.626 114.42C219.866 115.62 220.486 117.4 220.486 119.76V129H215.806V120.48C215.806 119.2 215.526 118.25 214.966 117.63C214.406 116.99 213.596 116.67 212.536 116.67C211.356 116.67 210.416 117.04 209.716 117.78C209.016 118.5 208.666 119.58 208.666 121.02V129H203.986V112.86H208.456V114.75C209.076 114.07 209.846 113.55 210.766 113.19C211.686 112.81 212.696 112.62 213.796 112.62ZM240.714 120.99C240.714 121.05 240.684 121.47 240.624 122.25H228.414C228.634 123.25 229.154 124.04 229.974 124.62C230.794 125.2 231.814 125.49 233.034 125.49C233.874 125.49 234.614 125.37 235.254 125.13C235.914 124.87 236.524 124.47 237.084 123.93L239.574 126.63C238.054 128.37 235.834 129.24 232.914 129.24C231.094 129.24 229.484 128.89 228.084 128.19C226.684 127.47 225.604 126.48 224.844 125.22C224.084 123.96 223.704 122.53 223.704 120.93C223.704 119.35 224.074 117.93 224.814 116.67C225.574 115.39 226.604 114.4 227.904 113.7C229.224 112.98 230.694 112.62 232.314 112.62C233.894 112.62 235.324 112.96 236.604 113.64C237.884 114.32 238.884 115.3 239.604 116.58C240.344 117.84 240.714 119.31 240.714 120.99ZM232.344 116.16C231.284 116.16 230.394 116.46 229.674 117.06C228.954 117.66 228.514 118.48 228.354 119.52H236.304C236.144 118.5 235.704 117.69 234.984 117.09C234.264 116.47 233.384 116.16 232.344 116.16Z" fill="#0F3784"/>
<defs>
<filter id="filter0_d_301_20" x="70" y="0.928223" width="102.603" height="115.072" filterUnits="userSpaceOnUse" color-interpolation-filters="sRGB">
<feFlood flood-opacity="0" result="BackgroundImageFix"/>
<feColorMatrix in="SourceAlpha" type="matrix" values="0 0 0 0 0 0 0 0 0 0 0 0 0 0 0 0 0 0 127 0" result="hardAlpha"/>
<feOffset dy="3"/>
<feGaussianBlur stdDeviation="4"/>
<feComposite in2="hardAlpha" operator="out"/>
<feColorMatrix type="matrix" values="0 0 0 0 0 0 0 0 0 0 0 0 0 0 0 0 0 0 0.22 0"/>
<feBlend mode="normal" in2="BackgroundImageFix" result="effect1_dropShadow_301_20"/>
<feBlend mode="normal" in="SourceGraphic" in2="effect1_dropShadow_301_20" result="shape"/>
</filter>
<linearGradient id="paint0_linear_301_20" x1="109" y1="13.5" x2="121" y2="55" gradientUnits="userSpaceOnUse">
<stop stop-color="#9C2720"/>
<stop offset="1" stop-color="#FF0000"/>
</linearGradient>
<linearGradient id="paint1_linear_301_20" x1="95.5" y1="77" x2="121" y2="55" gradientUnits="userSpaceOnUse">
<stop stop-color="#DDAC05"/>
<stop offset="1" stop-color="#FFF38A"/>
</linearGradient>
<linearGradient id="paint2_linear_301_20" x1="165" y1="79.5" x2="121" y2="56" gradientUnits="userSpaceOnUse">
<stop stop-color="#02659C"/>
<stop offset="1" stop-color="#5CC4FF"/>
</linearGradient>
</defs>
</svg>
